HIERARCHY
ROOT Hips
{
	OFFSET 0.00000 0.00000 0.00000
	CHANNELS 6 Xposition Yposition Zposition Zrotation Yrotation Xrotation 
	JOINT LHipJoint
	{
		OFFSET 0 0 0
		CHANNELS 3 Zrotation Yrotation Xrotation
		JOINT LeftUpLeg
		{
			OFFSET 1.58161 -1.81893 0.78828
			CHANNELS 3 Zrotation Yrotation Xrotation
			JOINT LeftLeg
			{
				OFFSET 2.53374 -6.96141 0.00000
				CHANNELS 3 Zrotation Yrotation Xrotation
				JOINT LeftFoot
				{
					OFFSET 2.63509 -7.23986 0.00000
					CHANNELS 3 Zrotation Yrotation Xrotation
					JOINT LeftToeBase
					{
						OFFSET 0.14115 -0.38781 2.05350
						CHANNELS 3 Zrotation Yrotation Xrotation
						End Site
						{
							OFFSET 0.00000 -0.00000 1.05543
						}
					}
				}
			}
		}
	}
	JOINT RHipJoint
	{
		OFFSET 0 0 0
		CHANNELS 3 Zrotation Yrotation Xrotation
		JOINT RightUpLeg
		{
			OFFSET -1.11138 -1.81893 0.78828
			CHANNELS 3 Zrotation Yrotation Xrotation
			JOINT RightLeg
			{
				OFFSET -2.58392 -7.09926 0.00000
				CHANNELS 3 Zrotation Yrotation Xrotation
				JOINT RightFoot
				{
					OFFSET -2.66423 -7.31992 0.00000
					CHANNELS 3 Zrotation Yrotation Xrotation
					JOINT RightToeBase
					{
						OFFSET -0.18831 -0.51739 2.12114
						CHANNELS 3 Zrotation Yrotation Xrotation
						End Site
						{
							OFFSET -0.00000 -0.00000 1.09845
						}
					}
				}
			}
		}
	}
	JOINT LowerBack
	{
		OFFSET 0 0 0
		CHANNELS 3 Zrotation Yrotation Xrotation
		JOINT Spine
		{
			OFFSET -0.01511 1.97958 -0.08829
			CHANNELS 3 Zrotation Yrotation Xrotation
			JOINT Spine1
			{
				OFFSET 0.08344 1.97334 -0.04330
				CHANNELS 3 Zrotation Yrotation Xrotation
				JOINT Neck
				{
					OFFSET 0 0 0
					CHANNELS 3 Zrotation Yrotation Xrotation
					JOINT Neck1
					{
						OFFSET 0.00559 1.76246 0.31246
						CHANNELS 3 Zrotation Yrotation Xrotation
						JOINT Head
						{
							OFFSET -0.07011 1.80354 -0.30524
							CHANNELS 3 Zrotation Yrotation Xrotation
							End Site
							{
								OFFSET -0.02385 1.83547 -0.13906
							}
						}
					}
				}
				JOINT LeftShoulder
				{
					OFFSET 0 0 0
					CHANNELS 3 Zrotation Yrotation Xrotation
					JOINT LeftArm
					{
						OFFSET 3.20667 1.30156 -0.60240
						CHANNELS 3 Zrotation Yrotation Xrotation
						JOINT LeftForeArm
						{
							OFFSET 4.95663 -0.00000 0.00000
							CHANNELS 3 Zrotation Yrotation Xrotation
							JOINT LeftHand
							{
								OFFSET 3.38177 -0.00000 0.00000
								CHANNELS 3 Zrotation Yrotation Xrotation
								JOINT LeftFingerBase
								{
									OFFSET 0 0 0
									CHANNELS 3 Zrotation Yrotation Xrotation
									JOINT LeftHandIndex1
									{
										OFFSET 0.66291 -0.00000 0.00000
										CHANNELS 3 Zrotation Yrotation Xrotation
										End Site
										{
											OFFSET 0.53445 -0.00000 0.00000
										}
									}
								}
								JOINT LThumb
								{
									OFFSET 0 0 0
									CHANNELS 3 Zrotation Yrotation Xrotation
									End Site
									{
										OFFSET 0.54261 -0.00000 0.54261
									}
								}
							}
						}
					}
				}
				JOINT RightShoulder
				{
					OFFSET 0 0 0
					CHANNELS 3 Zrotation Yrotation Xrotation
					JOINT RightArm
					{
						OFFSET -3.06877 1.34672 -0.60964
						CHANNELS 3 Zrotation Yrotation Xrotation
						JOINT RightForeArm
						{
							OFFSET -5.08365 -0.00000 0.00000
							CHANNELS 3 Zrotation Yrotation Xrotation
							JOINT RightHand
							{
								OFFSET -3.35984 -0.00000 0.00000
								CHANNELS 3 Zrotation Yrotation Xrotation
								JOINT RightFingerBase
								{
									OFFSET 0 0 0
									CHANNELS 3 Zrotation Yrotation Xrotation
									JOINT RightHandIndex1
									{
										OFFSET -0.82076 -0.00000 0.00000
										CHANNELS 3 Zrotation Yrotation Xrotation
										End Site
										{
											OFFSET -0.66172 -0.00000 0.00000
										}
									}
								}
								JOINT RThumb
								{
									OFFSET 0 0 0
									CHANNELS 3 Zrotation Yrotation Xrotation
									End Site
									{
										OFFSET -0.67182 -0.00000 0.67182
									}
								}
							}
						}
					}
				}
			}
		}
	}
}
MOTION
Frames: 15
Frame Time: .0083333
-0.9108 16.5970 -3.7408 15.6869 29.5179 78.6659 0.0000 0.0000 0.0000 8.7490 -23.3476 -72.8384 2.1261 9.1240 26.1838 -0.2625 -14.8857 -7.1973 0.7455 -5.5154 -15.3845 0.0000 0.0000 0.0000 -2.0770 7.8810 -109.2661 -6.5897 -14.9764 47.3048 -0.0651 -3.9277 -7.7967 -1.0506 -6.5177 18.2942 6.5784 3.3344 22.0392 8.5448 5.6756 14.0167 4.4590 2.8759 2.9062 -1.5852 -9.5890 -9.3081 0.8650 -12.9406 -4.7482 0.1362 -6.5776 0.1847 -0.0000 -0.0000 0.0000 -94.0906 -30.2704 89.6224 87.1386 -59.9690 -57.5222 -0.0000 0.0000 -98.8201 -58.2792 54.1374 -52.6671 -7.1250 0.0000 -0.0000 -107.4999 53.3572 -67.6407 -0.0000 -0.0000 0.0000 -30.7649 53.5849 -67.5017 -10.6206 17.7043 -1.6587 0.0000 0.0000 2.5861 -50.0021 18.5793 -20.7938 7.1250 -0.0000 -0.0000 -13.5266 -3.0237 -13.1722
-0.9122 16.5920 -3.7252 15.7652 29.6081 78.8536 0.0000 0.0000 0.0000 8.7214 -23.2815 -72.8998 2.0982 9.0677 26.0072 -0.2832 -14.9873 -7.0087 0.7641 -5.5822 -15.5768 0.0000 0.0000 0.0000 -1.9541 7.8222 -109.4248 -6.6105 -14.9949 47.3854 -0.0709 -3.8944 -7.9223 -1.0362 -6.4743 18.1669 6.6157 3.3064 22.0248 8.5673 5.6484 14.0104 4.4690 2.8641 2.9092 -1.6365 -9.6055 -9.2421 0.9434 -12.9614 -4.8743 0.1737 -6.5881 0.1435 0.0000 0.0000 0.0000 -94.0740 -30.1957 89.4070 86.8757 -59.9631 -57.2946 -0.0000 0.0000 -99.4608 -57.5056 55.3118 -52.2382 -7.1250 0.0000 -0.0000 -108.4537 53.7315 -69.8001 0.0000 0.0000 0.0000 -31.0408 53.5978 -68.0581 -10.5267 17.5592 -1.6303 0.0000 0.0000 3.1736 -50.3186 18.6392 -21.0679 7.1250 -0.0000 -0.0000 -13.6948 -2.8087 -13.4013
-0.9120 16.5888 -3.7112 15.9071 29.5594 79.1045 0.0000 0.0000 0.0000 8.6452 -23.3149 -73.0080 2.0734 9.0172 25.8493 -0.3068 -14.9999 -6.6850 0.6422 -5.1267 -14.2703 0.0000 0.0000 0.0000 -2.0896 7.7203 -109.5923 -6.6254 -15.0081 47.4428 -0.0745 -3.9319 -8.0571 -1.0308 -6.4580 18.1193 6.5302 3.2899 21.9629 8.5535 5.6088 14.0102 4.5123 2.8414 2.9325 -1.6825 -9.6092 -9.2225 1.0168 -12.9650 -5.0044 0.2070 -6.5902 0.1078 0.0000 0.0000 0.0000 -94.0551 -30.1909 89.2645 86.6776 -59.9582 -57.1231 -0.0000 0.0000 -100.0040 -56.6424 56.0778 -51.5734 -7.1250 0.0000 -0.0000 -108.8940 54.0874 -71.0651 0.0000 0.0000 0.0000 -31.3087 53.5726 -68.5047 -10.4716 17.4738 -1.6137 0.0000 0.0000 3.7016 -50.6100 18.5072 -21.1352 7.1250 -0.0000 -0.0000 -13.8969 -2.8617 -13.5977
-0.9126 16.5879 -3.6974 16.0336 29.5174 79.3142 0.0000 0.0000 0.0000 8.6239 -23.3676 -73.1022 2.0526 8.9748 25.7166 -0.3325 -15.0144 -6.3251 0.4852 -4.4666 -12.3932 0.0000 0.0000 0.0000 -2.2326 7.6391 -109.7072 -6.6344 -15.0161 47.4775 -0.0755 -3.9632 -8.1174 -1.0334 -6.4657 18.1419 6.4499 3.2827 21.9511 8.5450 5.5881 13.9942 4.5504 2.8272 2.9125 -1.6991 -9.6011 -9.2389 1.0444 -12.9524 -5.0222 0.2176 -6.5837 0.1078 -0.0000 0.0000 0.0000 -94.0240 -30.1577 89.2790 86.6676 -59.9580 -57.1145 -0.0000 0.0000 -99.9685 -55.9484 55.8060 -50.7493 -7.1250 0.0000 -0.0000 -108.2020 54.2716 -70.2371 -0.0000 0.0000 0.0000 -31.4787 53.5473 -68.7146 -10.4468 17.4354 -1.6062 0.0000 0.0000 3.9802 -51.0432 18.5992 -21.5279 7.1250 -0.0000 -0.0000 -14.1233 -2.5478 -13.9166
-0.9137 16.5867 -3.6837 16.0794 29.6235 79.4133 0.0000 0.0000 0.0000 8.6745 -23.3266 -73.1447 2.0382 8.9451 25.6238 -0.3643 -15.1485 -5.9977 0.4012 -4.0664 -11.2637 0.0000 0.0000 0.0000 -2.1211 7.6194 -109.7457 -6.6378 -15.0192 47.4909 -0.0780 -3.9384 -8.1574 -1.0259 -6.4430 18.0752 6.5078 3.2739 22.0087 8.5748 5.5970 13.9647 4.5433 2.8328 2.8540 -1.6459 -9.5820 -9.1629 1.0066 -12.9357 -5.1064 0.2065 -6.5768 0.0630 -0.0000 -0.0000 0.0000 -93.9519 -30.0469 89.7301 87.0609 -59.9673 -57.4550 -0.0000 0.0000 -98.4171 -55.9331 53.3081 -49.8591 -7.1250 0.0000 -0.0000 -105.1675 53.9687 -64.9286 -0.0000 -0.0000 0.0000 -31.5186 53.5575 -68.8941 -10.4462 17.4344 -1.6060 0.0000 0.0000 4.2259 -51.4383 18.8645 -22.0768 7.1250 -0.0000 -0.0000 -14.2816 -2.0102 -14.2258
-0.9154 16.5862 -3.6702 16.0596 29.7578 79.4609 0.0000 0.0000 0.0000 8.7164 -23.2084 -73.1842 2.0365 8.9418 25.6134 -0.3759 -15.3158 -6.0127 0.4506 -4.3068 -11.9414 0.0000 0.0000 0.0000 -1.9341 7.6565 -109.7611 -6.6344 -15.0162 47.4778 -0.0811 -3.9155 -8.2140 -1.0129 -6.4033 17.9591 6.5907 3.2689 22.0562 8.6035 5.6112 13.9601 4.5232 2.8427 2.8314 -1.6397 -9.5868 -9.0450 1.0135 -12.9479 -5.2376 0.2182 -6.5838 0.0034 0.0000 -0.0000 0.0000 -93.9306 -29.9338 89.5903 86.9903 -59.9657 -57.3938 -0.0000 0.0000 -98.8019 -55.0524 53.8406 -49.1214 -7.1250 0.0000 -0.0000 -105.3203 54.3035 -65.7353 0.0000 -0.0000 0.0000 -31.5093 53.5418 -68.9408 -10.4818 17.4896 -1.6167 0.0000 0.0000 4.4665 -51.8891 18.9135 -22.4518 7.1250 -0.0000 -0.0000 -14.5265 -1.7369 -14.5598
-0.9171 16.5895 -3.6568 16.0568 29.7951 79.5327 0.0000 0.0000 0.0000 8.7504 -23.1503 -73.1883 2.0427 8.9544 25.6529 -0.3520 -15.3624 -6.4193 0.5988 -4.9538 -13.7770 0.0000 0.0000 0.0000 -1.8963 7.6868 -109.7817 -6.6329 -15.0148 47.4719 -0.0840 -3.9297 -8.3056 -1.0131 -6.4040 17.9611 6.5634 3.3151 22.0230 8.6370 5.6593 13.9881 4.5699 2.8632 2.8716 -1.6639 -9.6119 -8.9669 1.0654 -12.9824 -5.3143 0.2424 -6.6013 -0.0274 0.0000 0.0000 0.0000 -93.9708 -29.8327 89.9204 87.1661 -59.9696 -57.5460 -0.0000 0.0000 -97.8892 -54.6655 52.2693 -48.1276 -7.1250 0.0000 -0.0000 -103.1367 54.2043 -62.1849 0.0000 0.0000 0.0000 -31.4718 53.4236 -68.8952 -10.5281 17.5613 -1.6307 0.0000 0.0000 4.6067 -52.1896 18.8470 -22.6023 7.1250 -0.0000 -0.0000 -14.7152 -1.6879 -14.7756
-0.9176 16.5943 -3.6443 16.1006 29.7763 79.6663 0.0000 0.0000 0.0000 8.7659 -23.1502 -73.1788 2.0459 8.9611 25.6737 -0.3276 -15.2690 -6.6707 0.7099 -5.3850 -15.0101 0.0000 0.0000 0.0000 -1.9660 7.6749 -109.8451 -6.6425 -15.0233 47.5088 -0.0898 -3.9420 -8.4637 -1.0574 -6.5382 18.3543 6.5194 3.3486 21.8978 8.6538 5.6782 14.0221 4.6196 2.8703 2.9646 -1.7385 -9.6275 -9.0312 1.1218 -12.9932 -5.2537 0.2636 -6.6053 0.0106 -0.0000 0.0000 0.0000 -94.0157 -29.8386 89.9759 86.9987 -59.9659 -57.4011 -0.0000 0.0000 -98.1316 -54.0177 52.3952 -47.4954 -7.1250 0.0000 -0.0000 -102.9147 54.4130 -62.2166 -0.0000 0.0000 0.0000 -31.4089 53.2888 -68.6269 -10.5978 17.6691 -1.6518 0.0000 0.0000 4.4853 -52.1986 18.7075 -22.4637 7.1250 -0.0000 -0.0000 -14.7569 -1.8752 -14.7696
-0.9147 16.5884 -3.6340 16.2609 29.7456 79.8788 0.0000 0.0000 0.0000 8.6599 -23.1988 -73.3379 2.0462 8.9616 25.6752 -0.3461 -15.2946 -6.4305 0.7187 -5.4175 -15.1032 0.0000 0.0000 0.0000 -2.2102 7.5567 -109.9574 -6.6647 -15.0430 47.5946 -0.0916 -4.0642 -8.6324 -1.1005 -6.6659 18.7292 6.4874 3.3394 21.7540 8.6673 5.6488 14.0185 4.6665 2.8551 3.0276 -1.8417 -9.6668 -9.0281 1.1843 -13.0363 -5.2605 0.2956 -6.6254 0.0195 -0.0000 0.0000 0.0000 -94.0546 -29.8868 89.9550 86.7995 -59.9613 -57.2286 -0.0000 0.0000 -98.7785 -53.0519 52.9929 -46.7149 -7.1250 0.0000 -0.0000 -103.1102 54.7858 -63.1644 -0.0000 0.0000 0.0000 -31.2863 53.1284 -68.0716 -10.6932 17.8165 -1.6809 0.0000 0.0000 4.2010 -52.1531 18.5135 -22.2280 7.1250 -0.0000 -0.0000 -14.7819 -2.1632 -14.7174
-0.9106 16.5734 -3.6249 16.4725 29.7111 80.0946 0.0000 0.0000 0.0000 8.4982 -23.2642 -73.6058 2.0476 8.9645 25.6843 -0.3987 -15.5208 -5.9066 0.6304 -5.0804 -14.1381 0.0000 0.0000 0.0000 -2.5699 7.3985 -110.0587 -6.6907 -15.0658 47.6947 -0.0881 -4.2666 -8.7503 -1.0924 -6.6420 18.6590 6.4216 3.3107 21.6840 8.6733 5.6016 13.9790 4.7193 2.8292 3.0110 -1.8146 -9.6724 -8.9505 1.1499 -13.0506 -5.3320 0.2879 -6.6336 -0.0193 0.0000 0.0000 0.0000 -94.0470 -29.8427 89.9633 86.6401 -59.9573 -57.0906 -0.0000 0.0000 -99.3294 -52.0510 53.4992 -45.8680 -7.1250 0.0000 -0.0000 -103.1836 55.1575 -63.9096 0.0000 0.0000 0.0000 -31.1689 53.0080 -67.5533 -10.7744 17.9416 -1.7058 0.0000 0.0000 3.9044 -52.0468 18.4487 -22.0837 7.1250 -0.0000 -0.0000 -14.7380 -2.3014 -14.6326
-0.9090 16.5735 -3.6141 16.5713 29.7134 80.1954 0.0000 0.0000 0.0000 8.4106 -23.2797 -73.6425 2.0471 8.9634 25.6810 -0.4131 -15.5990 -5.7811 0.6250 -5.0590 -14.0769 0.0000 0.0000 0.0000 -2.7715 7.3406 -110.0467 -6.7034 -15.0770 47.7436 -0.0873 -4.3987 -8.8679 -1.1174 -6.7152 18.8743 6.4148 3.3127 21.6537 8.6727 5.6007 13.9799 4.7245 2.8290 3.0263 -1.7127 -9.6796 -8.9448 1.0858 -13.0725 -5.3472 0.2550 -6.6469 -0.0359 -0.0000 0.0000 0.0000 -93.9877 -29.7726 90.1496 86.5795 -59.9557 -57.0382 -0.0000 0.0000 -99.2360 -51.5033 53.1299 -45.1672 -7.1250 0.0000 -0.0000 -102.3923 55.2654 -62.9173 -0.0000 0.0000 0.0000 -31.0364 52.8335 -67.0038 -10.8442 18.0490 -1.7273 0.0000 0.0000 3.6498 -51.9138 18.3013 -21.8348 7.1250 -0.0000 -0.0000 -14.7003 -2.5650 -14.5203
-0.9084 16.5855 -3.6019 16.5987 29.6837 80.2457 0.0000 0.0000 0.0000 8.2803 -23.2583 -73.5170 2.0479 8.9652 25.6864 -0.3794 -15.5109 -6.1844 0.8139 -5.7570 -16.0811 0.0000 0.0000 0.0000 -2.8705 7.3425 -109.9832 -6.6983 -15.0725 47.7239 -0.0857 -4.4953 -8.9306 -1.1726 -6.8735 19.3411 6.3974 3.3306 21.6020 8.6478 5.6099 14.0240 4.7123 2.8344 3.1019 -1.5796 -9.6843 -9.0344 1.0074 -13.0938 -5.3691 0.2087 -6.6611 -0.0427 -0.0000 -0.0000 0.0000 -93.8822 -29.8003 90.3317 86.5529 -59.9551 -57.0152 -0.0000 0.0000 -99.1401 -50.8567 52.5813 -44.2975 -7.1250 0.0000 -0.0000 -101.3009 55.3704 -61.4979 -0.0000 -0.0000 0.0000 -31.0094 52.6931 -66.8858 -10.8961 18.1289 -1.7435 0.0000 0.0000 3.6896 -51.8373 18.2810 -21.7594 7.1250 -0.0000 -0.0000 -14.6618 -2.6275 -14.4623
-0.9070 16.5903 -3.5911 16.6447 29.6370 80.3523 0.0000 0.0000 0.0000 8.1780 -23.2428 -73.5310 2.0547 8.9791 25.7300 -0.3673 -15.4588 -6.3030 0.8619 -5.9201 -16.5528 0.0000 0.0000 0.0000 -2.9541 7.3299 -109.9867 -6.6826 -15.0586 47.6633 -0.0820 -4.5861 -8.9354 -1.1676 -6.8592 19.2989 6.3391 3.3202 21.5231 8.6099 5.5768 14.0500 4.7164 2.8177 3.1689 -1.3704 -9.6211 -9.2787 0.7742 -13.0279 -5.2537 0.0962 -6.6321 0.0017 -0.0000 -0.0000 0.0000 -93.7775 -29.8910 90.3571 86.3912 -59.9507 -56.8752 -0.0000 0.0000 -99.5071 -49.7711 52.5959 -43.1996 -7.1250 0.0000 -0.0000 -100.6858 55.6912 -61.1670 -0.0000 -0.0000 0.0000 -31.0916 52.7319 -67.2443 -10.9093 18.1490 -1.7476 0.0000 0.0000 4.0453 -51.9319 18.6449 -22.2053 7.1250 -0.0000 -0.0000 -14.6211 -2.0847 -14.5673
-0.9048 16.5906 -3.5818 16.6809 29.6578 80.4428 0.0000 0.0000 0.0000 8.2429 -23.2648 -73.6013 2.0607 8.9914 25.7685 -0.3641 -15.4085 -6.2939 0.8437 -5.8587 -16.3749 0.0000 0.0000 0.0000 -2.9512 7.3168 -109.9980 -6.6671 -15.0450 47.6038 -0.0821 -4.6274 -8.9822 -1.1406 -6.7822 19.0716 6.3483 3.3040 21.4493 8.6035 5.5494 14.0705 4.7160 2.8063 3.2315 -1.1951 -9.5519 -9.5078 0.6000 -12.9492 -5.1238 0.0060 -6.5958 0.0552 0.0000 0.0000 0.0000 -93.7505 -29.9849 90.5416 86.1990 -59.9453 -56.7088 -0.0000 0.0000 -99.3660 -49.1092 51.9620 -42.2874 -7.1250 0.0000 -0.0000 -99.4514 55.7754 -59.5593 0.0000 0.0000 0.0000 -31.1130 52.7600 -67.4134 -10.9240 18.1717 -1.7521 0.0000 0.0000 4.3597 -52.5086 19.2130 -23.2193 7.1250 -0.0000 -0.0000 -14.7998 -1.0348 -15.0437
-0.9012 16.5920 -3.5735 16.6846 29.7581 80.4695 0.0000 0.0000 0.0000 8.3662 -23.2798 -73.6031 2.0589 8.9876 25.7566 -0.3547 -15.3729 -6.3919 0.9453 -6.1922 -17.3433 0.0000 0.0000 0.0000 -2.8271 7.3173 -109.9742 -6.6591 -15.0380 47.5730 -0.0847 -4.6127 -9.0294 -1.1098 -6.6929 18.8087 6.4289 3.3086 21.4034 8.6439 5.5639 14.0776 4.7169 2.8167 3.2671 -1.1408 -9.5796 -9.3133 0.5922 -13.0045 -5.4450 0.0167 -6.6269 -0.0799 0.0000 0.0000 0.0000 -93.7239 -29.9783 91.0177 86.3142 -59.9486 -56.8086 -0.0000 0.0000 -98.2387 -49.1179 49.9380 -41.4799 -7.1250 0.0000 -0.0000 -96.7356 55.3899 -55.0782 0.0000 0.0000 0.0000 -31.0170 52.6392 -67.0497 -10.9676 18.2385 -1.7658 0.0000 0.0000 4.3067 -52.8068 19.4538 -23.6957 7.1250 -0.0000 -0.0000 -14.9043 -0.5599 -15.2861
